<?xml version="1.0" encoding="utf-8"?>
<!-- Generator: Adobe Illustrator 19.1.0, SVG Export Plug-In . SVG Version: 6.00 Build 0)  -->
<!DOCTYPE svg PUBLIC "-//W3C//DTD SVG 1.1//EN" "http://www.w3.org/Graphics/SVG/1.1/DTD/svg11.dtd">
<svg version="1.1" id="Capa_1" xmlns="http://www.w3.org/2000/svg" xmlns:xlink="http://www.w3.org/1999/xlink" x="0px" y="0px"
	 viewBox="25 -24.4 97.4 97.4" style="enable-background:new 25 -24.4 97.4 97.4;" xml:space="preserve">
<g>
	<path d="M37.5-24.4h72.4c6.9,0,12.5,5.1,12.5,12.5v72.4c0,7.4-5.6,12.5-12.5,12.5H37.5C30.6,73,25,67.9,25,60.5v-72.4
		C25-19.3,30.6-24.4,37.5-24.4L37.5-24.4z M95.9-13.6c-2.4,0-4.4,2-4.4,4.4V1.3c0,2.4,2,4.4,4.4,4.4h11c2.4,0,4.4-2,4.4-4.4V-9.2
		c0-2.4-2-4.4-4.4-4.4H95.9L95.9-13.6z M111.4,16.8h-8.6c0.8,2.6,1.2,5.5,1.2,8.4c0,16.2-13.6,29.3-30.3,29.3
		c-16.7,0-30.3-13.1-30.3-29.3c0-2.9,0.4-5.7,1.2-8.4h-8.9v41.1c0,2.1,1.7,3.9,3.9,3.9h67.8c2.1,0,3.9-1.7,3.9-3.9L111.4,16.8
		L111.4,16.8z M73.8,5.1c-10.8,0-19.6,8.5-19.6,19S63,43,73.8,43c10.8,0,19.6-8.5,19.6-19S84.6,5.1,73.8,5.1z"/>
</g>
</svg>
