<svg xmlns="http://www.w3.org/2000/svg" version="1.1" x="0" y="0" viewBox="191 -191.1 430.1 430.1" xml:space="preserve"><path d="M589.4-191.1H222.8c-17.6 0-31.8 13.8-31.8 30.8v368.5c0 17 14.2 30.8 31.8 30.8h366.6c17.5 0 31.8-13.8 31.8-30.8v-368.5C621.1-177.3 606.9-191.1 589.4-191.1zM321.4 168.9h-65V-25.3h65V168.9zM288.9-51.8h-0.4c-21.8 0-35.9-14.9-35.9-33.6 0-19 14.5-33.5 36.8-33.5 22.2 0 35.9 14.5 36.3 33.5C325.7-66.7 311.6-51.8 288.9-51.8zM555.7 168.9h-65V65c0-26.1-9.4-43.9-32.9-43.9 -18 0-28.6 12-33.3 23.6 -1.7 4.1-2.2 9.9-2.2 15.7v108.5h-65c0 0 0.9-176 0-194.2h65V2.3c8.6-13.2 24-32.1 58.5-32.1 42.8 0 74.8 27.7 74.8 87.4L555.7 168.9 555.7 168.9zM421.9 2.9c0.1-0.2 0.3-0.4 0.4-0.6v0.6H421.9z"/></svg>