<?xml version="1.0" encoding="utf-8"?>
<!-- Generator: Adobe Illustrator 19.1.0, SVG Export Plug-In . SVG Version: 6.00 Build 0)  -->
<!DOCTYPE svg PUBLIC "-//W3C//DTD SVG 1.1//EN" "http://www.w3.org/Graphics/SVG/1.1/DTD/svg11.dtd">
<svg version="1.1" id="Capa_1" xmlns="http://www.w3.org/2000/svg" xmlns:xlink="http://www.w3.org/1999/xlink" x="0px" y="0px"
	 viewBox="191 -191.1 430.1 430.1" style="enable-background:new 191 -191.1 430.1 430.1;" xml:space="preserve">
<g>
	<path id="LinkedIn__x28_alt_x29_" d="M589.4-191.1H222.8c-17.6,0-31.8,13.8-31.8,30.8v368.5c0,17,14.2,30.8,31.8,30.8h366.6
		c17.5,0,31.8-13.8,31.8-30.8v-368.5C621.1-177.3,606.9-191.1,589.4-191.1z M321.4,168.9h-65V-25.3h65V168.9z M288.9-51.8h-0.4
		c-21.8,0-35.9-14.9-35.9-33.6c0-19,14.5-33.5,36.8-33.5c22.2,0,35.9,14.5,36.3,33.5C325.7-66.7,311.6-51.8,288.9-51.8z
		 M555.7,168.9h-65V65c0-26.1-9.4-43.9-32.9-43.9c-18,0-28.6,12-33.3,23.6c-1.7,4.1-2.2,9.9-2.2,15.7v108.5h-65c0,0,0.9-176,0-194.2
		h65V2.3c8.6-13.2,24-32.1,58.5-32.1c42.8,0,74.8,27.7,74.8,87.4L555.7,168.9L555.7,168.9z M421.9,2.9c0.1-0.2,0.3-0.4,0.4-0.6v0.6
		H421.9z"/>
</g>
</svg>
